<svg xmlns="http://www.w3.org/2000/svg" width="900" height="620" viewBox="0 0 900 620" fill="none">
  <rect width="900" height="620" rx="44" fill="#E9F8FF"/>
  <circle cx="720" cy="120" r="190" fill="#0E8FE8" opacity=".18"/>
  <circle cx="135" cy="540" r="180" fill="#5CC8FF" opacity=".22"/>
  <rect x="150" y="96" width="600" height="430" rx="34" fill="#FFFFFF" stroke="#B8DDEE" stroke-width="5"/>
  <rect x="190" y="140" width="250" height="342" rx="24" fill="#F5FBFF" stroke="#0E8FE8" stroke-width="4"/>
  <rect x="462" y="140" width="248" height="342" rx="24" fill="#F5FBFF" stroke="#0E8FE8" stroke-width="4"/>
  <path d="M450 150v324" stroke="#B8DDEE" stroke-width="5"/>
  <rect x="398" y="280" width="18" height="72" rx="9" fill="#061827"/>
  <rect x="486" y="280" width="18" height="72" rx="9" fill="#061827"/>
  <path d="M286 260h62M317 229v62M302 244l30 31M332 244l-30 31" stroke="#0E8FE8" stroke-width="13" stroke-linecap="round"/>
  <path d="M555 260h62M586 229v62M571 244l30 31M601 244l-30 31" stroke="#0E8FE8" stroke-width="13" stroke-linecap="round"/>
  <rect x="215" y="404" width="176" height="34" rx="17" fill="#FF7A1A"/>
  <rect x="510" y="404" width="154" height="34" rx="17" fill="#FF7A1A"/>
  <text x="450" y="570" text-anchor="middle" fill="#061827" font-family="Arial, sans-serif" font-size="34" font-weight="900">Commercial Refrigeration</text>
</svg>
