<svg xmlns="http://www.w3.org/2000/svg" width="1200" height="760" viewBox="0 0 1200 760" fill="none">
<rect width="1200" height="760" rx="56" fill="#061827"/>
<circle cx="1010" cy="120" r="260" fill="#0e8fe8" opacity=".22"/>
<circle cx="170" cy="650" r="270" fill="#ff7a1a" opacity=".18"/>
<rect x="100" y="95" width="1000" height="520" rx="48" fill="rgba(255,255,255,.72)" stroke="rgba(16,32,51,.16)" stroke-width="5"/>
<rect x="155" y="155" width="890" height="72" rx="25" fill="#0e8fe8" opacity=".95"/>
<circle cx="205" cy="191" r="15" fill="#4dff9a"/>
<rect x="245" y="174" width="300" height="34" rx="17" fill="#ffffff" opacity=".88"/>
<rect x="785" y="171" width="205" height="40" rx="20" fill="#ff7a1a" opacity=".95"/>
<rect x="160" y="280" width="255" height="230" rx="34" fill="#ffffff" stroke="rgba(16,32,51,.12)" stroke-width="4"/>
<rect x="472" y="280" width="255" height="230" rx="34" fill="#ffffff" stroke="rgba(16,32,51,.12)" stroke-width="4"/>
<rect x="785" y="280" width="255" height="230" rx="34" fill="#ffffff" stroke="rgba(16,32,51,.12)" stroke-width="4"/>
<path d="M235 390h105M287 338v105M250 352l75 75M325 352l-75 75" stroke="#0e8fe8" stroke-width="18" stroke-linecap="round"/>
<circle cx="600" cy="395" r="78" fill="#ff7a1a" opacity=".95"/>
<path d="M563 396l27 28 52-67" stroke="#ffffff" stroke-width="18" stroke-linecap="round" stroke-linejoin="round"/>
<path d="M852 365h122M852 420h122" stroke="#0e8fe8" stroke-width="22" stroke-linecap="round"/>
<text x="600" y="670" text-anchor="middle" fill="#ff7a1a" font-family="Arial, sans-serif" font-size="46" font-weight="900">Field Service Platform</text>
<text x="600" y="710" text-anchor="middle" fill="#ff7a1a" opacity=".78" font-family="Arial, sans-serif" font-size="25" font-weight="700">HVAC • Refrigeration • Equipment</text>
</svg>