<svg xmlns="http://www.w3.org/2000/svg" width="900" height="620" viewBox="0 0 900 620" fill="none">
  <rect width="900" height="620" rx="44" fill="#E9F8FF"/>
  <circle cx="720" cy="155" r="210" fill="#0E8FE8" opacity=".2"/>
  <circle cx="150" cy="520" r="220" fill="#FF7A1A" opacity=".16"/>
  <path d="M165 392h570c26 0 47 21 47 47v36H118v-36c0-26 21-47 47-47z" fill="#061827"/>
  <path d="M210 224h345c50 0 93 32 110 79l34 89H162l27-120c5-28 9-48 21-48z" fill="#FFFFFF" stroke="#0E8FE8" stroke-width="6"/>
  <path d="M560 250h70c18 0 35 11 42 28l33 81H560V250z" fill="#DDF5FF"/>
  <rect x="242" y="265" width="250" height="82" rx="18" fill="#E9F8FF"/>
  <rect x="270" y="292" width="120" height="24" rx="12" fill="#061827"/>
  <rect x="410" y="292" width="48" height="24" rx="12" fill="#FF7A1A"/>
  <circle cx="252" cy="475" r="58" fill="#061827"/>
  <circle cx="252" cy="475" r="25" fill="#5CC8FF"/>
  <circle cx="660" cy="475" r="58" fill="#061827"/>
  <circle cx="660" cy="475" r="25" fill="#5CC8FF"/>
  <text x="450" y="560" text-anchor="middle" fill="#061827" font-family="Arial, sans-serif" font-size="34" font-weight="900">Local Field Service</text>
</svg>
